<?xml version="1.0" encoding="utf-8"?><svg xmlns="http://www.w3.org/2000/svg" xmlns:xlink="http://www.w3.org/1999/xlink"><symbol viewBox="0 0 24 24" id="smile" xmlns="http://www.w3.org/2000/svg"><path d="M12 0C5.373 0 0 5.373 0 12s5.373 12 12 12 12-5.373 12-12S18.627 0 12 0zm0 2c3.691 0 6.915 2.016 8.647 5H3.353C5.085 4.016 8.309 2 12 2zm0 20C6.486 22 2 17.514 2 12c0-1.045.163-2.052.461-3H4.32c.606 1.518 1.929 3 3.986 3 2.477 0 2.153-2.31 3.694-2.31S13.218 12 15.695 12c2.055 0 3.379-1.482 3.984-3h1.86c.298.948.461 1.955.461 3 0 5.514-4.486 10-10 10zm5.508-8.059l.492.493C16.873 16.154 14.801 18 12.001 18 9.2 18 7.127 16.154 6 14.434l.492-.493c1.513 1.195 3.174 1.931 5.509 1.931 2.333 0 3.994-.736 5.507-1.931z"/></symbol></svg>